<?xml version="1.0" encoding="UTF-8" standalone="no"?>
<svg
   xmlns:dc="http://purl.org/dc/elements/1.1/"
   xmlns:cc="http://creativecommons.org/ns#"
   xmlns:rdf="http://www.w3.org/1999/02/22-rdf-syntax-ns#"
   xmlns:svg="http://www.w3.org/2000/svg"
   xmlns="http://www.w3.org/2000/svg"
   viewBox="0 0 450 282.5"
   height="282.5"
   width="450"
   xml:space="preserve"
   version="1.1"
   id="svg2"><metadata
     id="metadata8"><rdf:RDF><cc:Work
         rdf:about=""><dc:format>image/svg+xml</dc:format><dc:type
           rdf:resource="http://purl.org/dc/dcmitype/StillImage" /></cc:Work></rdf:RDF></metadata><defs
     id="defs6" /><g
     transform="matrix(1.25,0,0,-1.25,0,282.5)"
     id="g10"><g
       transform="scale(0.1,0.1)"
       id="g12"><path
         id="path14"
         style="fill:none;stroke:#000000;stroke-width:2.5;stroke-linecap:butt;stroke-linejoin:miter;stroke-miterlimit:3.79999995;stroke-dasharray:none;stroke-opacity:1"
         d="m 487.5,400 31.5,0 m 2855.5,0 -31.5,0" /><g
         transform="scale(10,10)"
         id="g16"><text
           id="text18"
           style="font-variant:normal;font-weight:bold;font-size:12.5px;font-family:Helvetica;-inkscape-font-specification:Helvetica-Bold;writing-mode:lr-tb;fill:#000000;fill-opacity:1;fill-rule:nonzero;stroke:none"
           transform="matrix(1,0,0,-1,34.3,35.8352)"><tspan
             id="tspan20"
             y="0"
             x="0">0</tspan></text>
</g><path
         id="path22"
         style="fill:none;stroke:#000000;stroke-width:2.5;stroke-linecap:butt;stroke-linejoin:miter;stroke-miterlimit:3.79999995;stroke-dasharray:none;stroke-opacity:1"
         d="m 487.5,743.5 31.5,0 m 2855.5,0 -31.5,0" /><g
         transform="scale(10,10)"
         id="g24"><text
           id="text26"
           style="font-variant:normal;font-weight:bold;font-size:12.5px;font-family:Helvetica;-inkscape-font-specification:Helvetica-Bold;writing-mode:lr-tb;fill:#000000;fill-opacity:1;fill-rule:nonzero;stroke:none"
           transform="matrix(1,0,0,-1,27.35,70.1852)"><tspan
             id="tspan28"
             y="0"
             x="0 6.9499998">50</tspan></text>
</g><path
         id="path30"
         style="fill:none;stroke:#000000;stroke-width:2.5;stroke-linecap:butt;stroke-linejoin:miter;stroke-miterlimit:3.79999995;stroke-dasharray:none;stroke-opacity:1"
         d="m 487.5,1087 31.5,0 m 2855.5,0 -31.5,0" /><g
         transform="scale(10,10)"
         id="g32"><text
           id="text34"
           style="font-variant:normal;font-weight:bold;font-size:12.5px;font-family:Helvetica;-inkscape-font-specification:Helvetica-Bold;writing-mode:lr-tb;fill:#000000;fill-opacity:1;fill-rule:nonzero;stroke:none"
           transform="matrix(1,0,0,-1,20.4,104.535)"><tspan
             id="tspan36"
             y="0"
             x="0 6.9499998 13.9">100</tspan></text>
</g><path
         id="path38"
         style="fill:none;stroke:#000000;stroke-width:2.5;stroke-linecap:butt;stroke-linejoin:miter;stroke-miterlimit:3.79999995;stroke-dasharray:none;stroke-opacity:1"
         d="m 487.5,1430.5 31.5,0 m 2855.5,0 -31.5,0" /><g
         transform="scale(10,10)"
         id="g40"><text
           id="text42"
           style="font-variant:normal;font-weight:bold;font-size:12.5px;font-family:Helvetica;-inkscape-font-specification:Helvetica-Bold;writing-mode:lr-tb;fill:#000000;fill-opacity:1;fill-rule:nonzero;stroke:none"
           transform="matrix(1,0,0,-1,20.4,138.885)"><tspan
             id="tspan44"
             y="0"
             x="0 6.9499998 13.9">150</tspan></text>
</g><path
         id="path46"
         style="fill:none;stroke:#000000;stroke-width:2.5;stroke-linecap:butt;stroke-linejoin:miter;stroke-miterlimit:3.79999995;stroke-dasharray:none;stroke-opacity:1"
         d="m 487.5,1774 31.5,0 m 2855.5,0 -31.5,0" /><g
         transform="scale(10,10)"
         id="g48"><text
           id="text50"
           style="font-variant:normal;font-weight:bold;font-size:12.5px;font-family:Helvetica;-inkscape-font-specification:Helvetica-Bold;writing-mode:lr-tb;fill:#000000;fill-opacity:1;fill-rule:nonzero;stroke:none"
           transform="matrix(1,0,0,-1,20.4,173.235)"><tspan
             id="tspan52"
             y="0"
             x="0 6.9499998 13.9">200</tspan></text>
</g><path
         id="path54"
         style="fill:none;stroke:#000000;stroke-width:2.5;stroke-linecap:butt;stroke-linejoin:miter;stroke-miterlimit:3.79999995;stroke-dasharray:none;stroke-opacity:1"
         d="m 487.5,2117.5 31.5,0 m 2855.5,0 -31.5,0" /><g
         transform="scale(10,10)"
         id="g56"><text
           id="text58"
           style="font-variant:normal;font-weight:bold;font-size:12.5px;font-family:Helvetica;-inkscape-font-specification:Helvetica-Bold;writing-mode:lr-tb;fill:#000000;fill-opacity:1;fill-rule:nonzero;stroke:none"
           transform="matrix(1,0,0,-1,20.4,207.585)"><tspan
             id="tspan60"
             y="0"
             x="0 6.9499998 13.9">250</tspan></text>
</g><path
         id="path62"
         style="fill:none;stroke:#000000;stroke-width:2.5;stroke-linecap:butt;stroke-linejoin:miter;stroke-miterlimit:3.79999995;stroke-dasharray:none;stroke-opacity:1"
         d="m 1065,400 0,31.5 m 0,1686 0,-31.5" /><g
         transform="scale(10,10)"
         id="g64"><text
           id="text66"
           style="font-variant:normal;font-weight:bold;font-size:12.5px;font-family:Helvetica;-inkscape-font-specification:Helvetica-Bold;writing-mode:lr-tb;fill:#000000;fill-opacity:1;fill-rule:nonzero;stroke:none"
           transform="matrix(1,0,0,-1,103.025,23.3352)"><tspan
             id="tspan68"
             y="0"
             x="0">1</tspan></text>
</g><path
         id="path70"
         style="fill:none;stroke:#000000;stroke-width:2.5;stroke-linecap:butt;stroke-linejoin:miter;stroke-miterlimit:3.79999995;stroke-dasharray:none;stroke-opacity:1"
         d="m 1642.5,400 0,31.5 m 0,1686 0,-31.5" /><g
         transform="scale(10,10)"
         id="g72"><text
           id="text74"
           style="font-variant:normal;font-weight:bold;font-size:12.5px;font-family:Helvetica;-inkscape-font-specification:Helvetica-Bold;writing-mode:lr-tb;fill:#000000;fill-opacity:1;fill-rule:nonzero;stroke:none"
           transform="matrix(1,0,0,-1,160.775,23.3352)"><tspan
             id="tspan76"
             y="0"
             x="0">5</tspan></text>
</g><path
         id="path78"
         style="fill:none;stroke:#000000;stroke-width:2.5;stroke-linecap:butt;stroke-linejoin:miter;stroke-miterlimit:3.79999995;stroke-dasharray:none;stroke-opacity:1"
         d="m 2219.5,400 0,31.5 m 0,1686 0,-31.5" /><g
         transform="scale(10,10)"
         id="g80"><text
           id="text82"
           style="font-variant:normal;font-weight:bold;font-size:12.5px;font-family:Helvetica;-inkscape-font-specification:Helvetica-Bold;writing-mode:lr-tb;fill:#000000;fill-opacity:1;fill-rule:nonzero;stroke:none"
           transform="matrix(1,0,0,-1,215,23.3352)"><tspan
             id="tspan84"
             y="0"
             x="0 6.9499998">10</tspan></text>
</g><path
         id="path86"
         style="fill:none;stroke:#000000;stroke-width:2.5;stroke-linecap:butt;stroke-linejoin:miter;stroke-miterlimit:3.79999995;stroke-dasharray:none;stroke-opacity:1"
         d="m 2797,400 0,31.5 m 0,1686 0,-31.5" /><g
         transform="scale(10,10)"
         id="g88"><text
           id="text90"
           style="font-variant:normal;font-weight:bold;font-size:12.5px;font-family:Helvetica;-inkscape-font-specification:Helvetica-Bold;writing-mode:lr-tb;fill:#000000;fill-opacity:1;fill-rule:nonzero;stroke:none"
           transform="matrix(1,0,0,-1,272.75,23.3352)"><tspan
             id="tspan92"
             y="0"
             x="0 6.9499998">20</tspan></text>
</g><path
         id="path94"
         style="fill:none;stroke:#000000;stroke-width:5;stroke-linecap:butt;stroke-linejoin:miter;stroke-miterlimit:3.79999995;stroke-dasharray:none;stroke-opacity:1"
         d="m 487.5,400 2887,0 0,1717.5 -2887,0 0,-1717.5 z" /><g
         transform="scale(10,10)"
         id="g96"><text
           id="text98"
           style="font-variant:normal;font-weight:bold;font-size:12.5px;font-family:Helvetica;-inkscape-font-specification:Helvetica-Bold;writing-mode:lr-tb;fill:#000000;fill-opacity:1;fill-rule:nonzero;stroke:none"
           transform="matrix(0,1,1,0,16.6648,101.888)"><tspan
             id="tspan100"
             y="0"
             x="0 7.6374998 11.1125 22.225 29.174999 32.650002 36.8125 43.762501">Time (s)</tspan></text>
<text
           id="text102"
           style="font-variant:normal;font-weight:bold;font-size:12.5px;font-family:Helvetica;-inkscape-font-specification:Helvetica-Bold;writing-mode:lr-tb;fill:#000000;fill-opacity:1;fill-rule:nonzero;stroke:none"
           transform="matrix(1,0,0,-1,117.388,4.58516)"><tspan
             id="tspan104"
             y="0"
             x="0 9.0249996 16.6625 27.775 35.412498 42.362499 47.224998 50.700001 58.337502 62.5 65.974998 73.612503 80.5625 85.425003 92.375 95.849998 99.324997 106.275 109.75 113.225 117.3875 125.025 129.8875 136.83749 143.78751">Number of parallel thread</tspan><tspan
             id="tspan106"
             y="-193.60001"
             x="-39.887501 -30.1625 -21.137501 -17.6625">QUIC</tspan></text>
</g><path
         id="path108"
         style="fill:#000000;fill-opacity:1;fill-rule:nonzero;stroke:none"
         d="m 1162.5,1992.5 331.5,0 0,62.5 -331.5,0 0,-62.5 z" /><path
         id="path110"
         style="fill:none;stroke:#000000;stroke-width:2.5;stroke-linecap:butt;stroke-linejoin:miter;stroke-miterlimit:3.79999995;stroke-dasharray:none;stroke-opacity:1"
         d="m 1162.5,1992.5 331.5,0 0,62 -331.5,0 0,-62 z" /><path
         id="path112"
         style="fill:#000000;fill-opacity:1;fill-rule:nonzero;stroke:none"
         d="m 839.5,400 104.5,0 0,381.5 -104.5,0 0,-381.5 z" /><path
         id="path114"
         style="fill:none;stroke:#000000;stroke-width:2.5;stroke-linecap:butt;stroke-linejoin:miter;stroke-miterlimit:3.79999995;stroke-dasharray:none;stroke-opacity:1"
         d="m 839.5,400 104,0 0,381 -104,0 0,-381 z" /><path
         id="path116"
         style="fill:#000000;fill-opacity:1;fill-rule:nonzero;stroke:none"
         d="m 1417,400 104.5,0 0,584 -104.5,0 0,-584 z" /><path
         id="path118"
         style="fill:none;stroke:#000000;stroke-width:2.5;stroke-linecap:butt;stroke-linejoin:miter;stroke-miterlimit:3.79999995;stroke-dasharray:none;stroke-opacity:1"
         d="m 1417,400 104,0 0,583.5 -104,0 0,-583.5 z" /><path
         id="path120"
         style="fill:#000000;fill-opacity:1;fill-rule:nonzero;stroke:none"
         d="m 1994.5,400 104.5,0 0,880 -104.5,0 0,-880 z" /><path
         id="path122"
         style="fill:none;stroke:#000000;stroke-width:2.5;stroke-linecap:butt;stroke-linejoin:miter;stroke-miterlimit:3.79999995;stroke-dasharray:none;stroke-opacity:1"
         d="m 1994.5,400 104,0 0,879.5 -104,0 0,-879.5 z" /><path
         id="path124"
         style="fill:#000000;fill-opacity:1;fill-rule:nonzero;stroke:none"
         d="m 2572,400 104.5,0 0,1590 -104.5,0 0,-1590 z" /><path
         id="path126"
         style="fill:none;stroke:#000000;stroke-width:2.5;stroke-linecap:butt;stroke-linejoin:miter;stroke-miterlimit:3.79999995;stroke-dasharray:none;stroke-opacity:1"
         d="m 2572,400 104,0 0,1589.5 -104,0 0,-1589.5 z" /><path
         id="path128"
         style="fill:none;stroke:#000000;stroke-width:12.5;stroke-linecap:butt;stroke-linejoin:miter;stroke-miterlimit:3.79999995;stroke-dasharray:none;stroke-opacity:1"
         d="m 891.5,766 0,43 m -15.5,-43 31,0 m -31,43 31,0 m 562,165.5 0,15 m -15.5,-15 31,0 m -31,15 31,0 m 562,268.5 0,37 m -15.5,-37 31,0 m -31,37 31,0 m 562,618 0,157.5 m -15.5,-157.5 31,0 m -31,157.5 31,0" /><g
         transform="scale(10,10)"
         id="g130"><text
           id="text132"
           style="font-variant:normal;font-weight:bold;font-size:12.5px;font-family:Helvetica;-inkscape-font-specification:Helvetica-Bold;writing-mode:lr-tb;fill:#000000;fill-opacity:1;fill-rule:nonzero;stroke:none"
           transform="matrix(1,0,0,-1,83.75,185.685)"><tspan
             id="tspan134"
             y="0"
             x="0 7.6374998 16.6625">TCP</tspan></text>
</g><path
         id="path136"
         style="fill:#ffd600;fill-opacity:1;fill-rule:nonzero;stroke:none"
         d="m 1162.5,1867.5 331.5,0 0,62.5 -331.5,0 0,-62.5 z" /><path
         id="path138"
         style="fill:none;stroke:#000000;stroke-width:2.5;stroke-linecap:butt;stroke-linejoin:miter;stroke-miterlimit:3.79999995;stroke-dasharray:none;stroke-opacity:1"
         d="m 1162.5,1867.5 331.5,0 0,62 -331.5,0 0,-62 z" /><path
         id="path140"
         style="fill:#ffd600;fill-opacity:1;fill-rule:nonzero;stroke:none"
         d="m 955,400 104.5,0 0,288 -104.5,0 0,-288 z" /><path
         id="path142"
         style="fill:none;stroke:#000000;stroke-width:2.5;stroke-linecap:butt;stroke-linejoin:miter;stroke-miterlimit:3.79999995;stroke-dasharray:none;stroke-opacity:1"
         d="m 955,400 104,0 0,287.5 -104,0 0,-287.5 z" /><path
         id="path144"
         style="fill:#ffd600;fill-opacity:1;fill-rule:nonzero;stroke:none"
         d="m 1532.5,400 104.5,0 0,461.5 -104.5,0 0,-461.5 z" /><path
         id="path146"
         style="fill:none;stroke:#000000;stroke-width:2.5;stroke-linecap:butt;stroke-linejoin:miter;stroke-miterlimit:3.79999995;stroke-dasharray:none;stroke-opacity:1"
         d="m 1532.5,400 104,0 0,461 -104,0 0,-461 z" /><path
         id="path148"
         style="fill:#ffd600;fill-opacity:1;fill-rule:nonzero;stroke:none"
         d="m 2110,400 104.5,0 0,555 -104.5,0 0,-555 z" /><path
         id="path150"
         style="fill:none;stroke:#000000;stroke-width:2.5;stroke-linecap:butt;stroke-linejoin:miter;stroke-miterlimit:3.79999995;stroke-dasharray:none;stroke-opacity:1"
         d="m 2110,400 104,0 0,554.5 -104,0 0,-554.5 z" /><path
         id="path152"
         style="fill:#ffd600;fill-opacity:1;fill-rule:nonzero;stroke:none"
         d="m 2687.5,400 104.5,0 0,451.5 -104.5,0 0,-451.5 z" /><path
         id="path154"
         style="fill:none;stroke:#000000;stroke-width:2.5;stroke-linecap:butt;stroke-linejoin:miter;stroke-miterlimit:3.79999995;stroke-dasharray:none;stroke-opacity:1"
         d="m 2687.5,400 104,0 0,451 -104,0 0,-451 z" /><path
         id="path156"
         style="fill:none;stroke:#000000;stroke-width:12.5;stroke-linecap:butt;stroke-linejoin:miter;stroke-miterlimit:3.79999995;stroke-dasharray:none;stroke-opacity:1"
         d="m 1007,682.5 0,15.5 m -15.5,-15.5 31,0 m -31,15.5 31,0 m 562,139.5 0,52 m -15.5,-52 31,0 m -31,52 31,0 m 562,-28.5 0,149.5 m -15.5,-149.5 31,0 m -31,149.5 31,0 m 562,-178.5 0,38 m -15.5,-38 31,0 m -31,38 31,0" /><g
         transform="scale(10,10)"
         id="g158"><text
           id="text160"
           style="font-variant:normal;font-weight:bold;font-size:12.5px;font-family:Helvetica;-inkscape-font-specification:Helvetica-Bold;writing-mode:lr-tb;fill:#000000;fill-opacity:1;fill-rule:nonzero;stroke:none"
           transform="matrix(1,0,0,-1,65,173.185)"><tspan
             id="tspan162"
             y="0"
             x="0 10.4125 18.75 26.387501 35.412498">MPTCP</tspan></text>
</g><path
         id="path164"
         style="fill:#ff0000;fill-opacity:1;fill-rule:nonzero;stroke:none"
         d="m 1162.5,1742.5 331.5,0 0,62.5 -331.5,0 0,-62.5 z" /><path
         id="path166"
         style="fill:none;stroke:#000000;stroke-width:2.5;stroke-linecap:butt;stroke-linejoin:miter;stroke-miterlimit:3.79999995;stroke-dasharray:none;stroke-opacity:1"
         d="m 1162.5,1742.5 331.5,0 0,62 -331.5,0 0,-62 z" /><path
         id="path168"
         style="fill:#ff0000;fill-opacity:1;fill-rule:nonzero;stroke:none"
         d="m 1070.5,400 104.5,0 0,275.5 -104.5,0 0,-275.5 z" /><path
         id="path170"
         style="fill:none;stroke:#000000;stroke-width:2.5;stroke-linecap:butt;stroke-linejoin:miter;stroke-miterlimit:3.79999995;stroke-dasharray:none;stroke-opacity:1"
         d="m 1070.5,400 104,0 0,275 -104,0 0,-275 z" /><path
         id="path172"
         style="fill:#ff0000;fill-opacity:1;fill-rule:nonzero;stroke:none"
         d="m 1648,400 104.5,0 0,336.5 -104.5,0 0,-336.5 z" /><path
         id="path174"
         style="fill:none;stroke:#000000;stroke-width:2.5;stroke-linecap:butt;stroke-linejoin:miter;stroke-miterlimit:3.79999995;stroke-dasharray:none;stroke-opacity:1"
         d="m 1648,400 104,0 0,336 -104,0 0,-336 z" /><path
         id="path176"
         style="fill:#ff0000;fill-opacity:1;fill-rule:nonzero;stroke:none"
         d="m 2225.5,400 104.5,0 0,341.5 -104.5,0 0,-341.5 z" /><path
         id="path178"
         style="fill:none;stroke:#000000;stroke-width:2.5;stroke-linecap:butt;stroke-linejoin:miter;stroke-miterlimit:3.79999995;stroke-dasharray:none;stroke-opacity:1"
         d="m 2225.5,400 104,0 0,341 -104,0 0,-341 z" /><path
         id="path180"
         style="fill:#ff0000;fill-opacity:1;fill-rule:nonzero;stroke:none"
         d="m 2803,400 104.5,0 0,367.5 -104.5,0 0,-367.5 z" /><path
         id="path182"
         style="fill:none;stroke:#000000;stroke-width:2.5;stroke-linecap:butt;stroke-linejoin:miter;stroke-miterlimit:3.79999995;stroke-dasharray:none;stroke-opacity:1"
         d="m 2803,400 104,0 0,367 -104,0 0,-367 z" /><path
         id="path184"
         style="fill:none;stroke:#000000;stroke-width:12.5;stroke-linecap:butt;stroke-linejoin:miter;stroke-miterlimit:3.79999995;stroke-dasharray:none;stroke-opacity:1"
         d="m 1122.5,673.5 0,3 m -15.5,-3 31,0 m -31,3 31,0 m 562,49 0,22.5 m -15.5,-22.5 31,0 m -31,22.5 31,0 m 562,-14 0,10.5 M 2262,734 l 31,0 m -31,10.5 31,0 m 562,13.5 0,22 m -15.5,-22 31,0 m -31,22 31,0" /><g
         transform="scale(10,10)"
         id="g186"><text
           id="text188"
           style="font-variant:normal;font-weight:bold;font-size:12.5px;font-family:Helvetica;-inkscape-font-specification:Helvetica-Bold;writing-mode:lr-tb;fill:#000000;fill-opacity:1;fill-rule:nonzero;stroke:none"
           transform="matrix(1,0,0,-1,60.8125,160.685)"><tspan
             id="tspan190"
             y="0"
             x="0 8.3374996 11.8125 18.762501 25.7125 33.349998 40.987499">Viscous</tspan></text>
</g><path
         id="path192"
         style="fill:#0000ff;fill-opacity:1;fill-rule:nonzero;stroke:none"
         d="m 1162.5,1617.5 331.5,0 0,62.5 -331.5,0 0,-62.5 z" /><path
         id="path194"
         style="fill:none;stroke:#000000;stroke-width:2.5;stroke-linecap:butt;stroke-linejoin:miter;stroke-miterlimit:3.79999995;stroke-dasharray:none;stroke-opacity:1"
         d="m 1162.5,1617.5 331.5,0 0,62 -331.5,0 0,-62 z" /><path
         id="path196"
         style="fill:#0000ff;fill-opacity:1;fill-rule:nonzero;stroke:none"
         d="m 1186,400 104.5,0 0,44.5 -104.5,0 0,-44.5 z" /><path
         id="path198"
         style="fill:none;stroke:#000000;stroke-width:2.5;stroke-linecap:butt;stroke-linejoin:miter;stroke-miterlimit:3.79999995;stroke-dasharray:none;stroke-opacity:1"
         d="m 1186,400 104,0 0,44 -104,0 0,-44 z" /><path
         id="path200"
         style="fill:#0000ff;fill-opacity:1;fill-rule:nonzero;stroke:none"
         d="m 1763.5,400 104.5,0 0,95.5 -104.5,0 0,-95.5 z" /><path
         id="path202"
         style="fill:none;stroke:#000000;stroke-width:2.5;stroke-linecap:butt;stroke-linejoin:miter;stroke-miterlimit:3.79999995;stroke-dasharray:none;stroke-opacity:1"
         d="m 1763.5,400 104,0 0,95 -104,0 0,-95 z" /><path
         id="path204"
         style="fill:#0000ff;fill-opacity:1;fill-rule:nonzero;stroke:none"
         d="m 2341,400 104.5,0 0,181.5 -104.5,0 0,-181.5 z" /><path
         id="path206"
         style="fill:none;stroke:#000000;stroke-width:2.5;stroke-linecap:butt;stroke-linejoin:miter;stroke-miterlimit:3.79999995;stroke-dasharray:none;stroke-opacity:1"
         d="m 2341,400 104,0 0,181 -104,0 0,-181 z" /><path
         id="path208"
         style="fill:#0000ff;fill-opacity:1;fill-rule:nonzero;stroke:none"
         d="m 2918.5,400 104.5,0 0,361 -104.5,0 0,-361 z" /><path
         id="path210"
         style="fill:none;stroke:#000000;stroke-width:2.5;stroke-linecap:butt;stroke-linejoin:miter;stroke-miterlimit:3.79999995;stroke-dasharray:none;stroke-opacity:1"
         d="m 2918.5,400 104,0 0,360.5 -104,0 0,-360.5 z" /><path
         id="path212"
         style="fill:none;stroke:#000000;stroke-width:12.5;stroke-linecap:butt;stroke-linejoin:miter;stroke-miterlimit:3.79999995;stroke-dasharray:none;stroke-opacity:1"
         d="m 1238,433.5 0,19.5 m -15.5,-19.5 31,0 m -31,19.5 31,0 m 562,34.5 0,12.5 m -15.5,-12.5 31,0 m -31,12.5 31,0 m 562,66 0,32 m -15.5,-32 31,0 m -31,32 31,0 m 562,147 0,32 m -15.5,-32 31,0 m -31,32 31,0" /><path
         id="path214"
         style="fill:none;stroke:#000000;stroke-width:5;stroke-linecap:butt;stroke-linejoin:miter;stroke-miterlimit:3.79999995;stroke-dasharray:none;stroke-opacity:1"
         d="m 487.5,400 2887,0 0,1717.5 -2887,0 0,-1717.5 z" /></g></g></svg>