<?xml version="1.0" encoding="UTF-8" standalone="no"?>
<svg
   xmlns:dc="http://purl.org/dc/elements/1.1/"
   xmlns:cc="http://creativecommons.org/ns#"
   xmlns:rdf="http://www.w3.org/1999/02/22-rdf-syntax-ns#"
   xmlns:svg="http://www.w3.org/2000/svg"
   xmlns="http://www.w3.org/2000/svg"
   viewBox="0 0 450 282.5"
   height="282.5"
   width="450"
   xml:space="preserve"
   version="1.1"
   id="svg2"><metadata
     id="metadata8"><rdf:RDF><cc:Work
         rdf:about=""><dc:format>image/svg+xml</dc:format><dc:type
           rdf:resource="http://purl.org/dc/dcmitype/StillImage" /></cc:Work></rdf:RDF></metadata><defs
     id="defs6" /><g
     transform="matrix(1.25,0,0,-1.25,0,282.5)"
     id="g10"><g
       transform="scale(0.1,0.1)"
       id="g12"><path
         id="path14"
         style="fill:none;stroke:#000000;stroke-width:2.5;stroke-linecap:butt;stroke-linejoin:miter;stroke-miterlimit:3.79999995;stroke-dasharray:none;stroke-opacity:1"
         d="m 487.5,400 31.5,0 m 2855.5,0 -31.5,0" /><g
         transform="scale(10,10)"
         id="g16"><text
           id="text18"
           style="font-variant:normal;font-weight:bold;font-size:12.5px;font-family:Helvetica;-inkscape-font-specification:Helvetica-Bold;writing-mode:lr-tb;fill:#000000;fill-opacity:1;fill-rule:nonzero;stroke:none"
           transform="matrix(1,0,0,-1,34.3,35.8352)"><tspan
             id="tspan20"
             y="0"
             x="0">0</tspan></text>
</g><path
         id="path22"
         style="fill:none;stroke:#000000;stroke-width:2.5;stroke-linecap:butt;stroke-linejoin:miter;stroke-miterlimit:3.79999995;stroke-dasharray:none;stroke-opacity:1"
         d="m 487.5,686.5 31.5,0 m 2855.5,0 -31.5,0" /><g
         transform="scale(10,10)"
         id="g24"><text
           id="text26"
           style="font-variant:normal;font-weight:bold;font-size:12.5px;font-family:Helvetica;-inkscape-font-specification:Helvetica-Bold;writing-mode:lr-tb;fill:#000000;fill-opacity:1;fill-rule:nonzero;stroke:none"
           transform="matrix(1,0,0,-1,27.35,64.4852)"><tspan
             id="tspan28"
             y="0"
             x="0 6.9499998">20</tspan></text>
</g><path
         id="path30"
         style="fill:none;stroke:#000000;stroke-width:2.5;stroke-linecap:butt;stroke-linejoin:miter;stroke-miterlimit:3.79999995;stroke-dasharray:none;stroke-opacity:1"
         d="m 487.5,972.5 31.5,0 m 2855.5,0 -31.5,0" /><g
         transform="scale(10,10)"
         id="g32"><text
           id="text34"
           style="font-variant:normal;font-weight:bold;font-size:12.5px;font-family:Helvetica;-inkscape-font-specification:Helvetica-Bold;writing-mode:lr-tb;fill:#000000;fill-opacity:1;fill-rule:nonzero;stroke:none"
           transform="matrix(1,0,0,-1,27.35,93.0852)"><tspan
             id="tspan36"
             y="0"
             x="0 6.9499998">40</tspan></text>
</g><path
         id="path38"
         style="fill:none;stroke:#000000;stroke-width:2.5;stroke-linecap:butt;stroke-linejoin:miter;stroke-miterlimit:3.79999995;stroke-dasharray:none;stroke-opacity:1"
         d="m 487.5,1259 31.5,0 m 2855.5,0 -31.5,0" /><g
         transform="scale(10,10)"
         id="g40"><text
           id="text42"
           style="font-variant:normal;font-weight:bold;font-size:12.5px;font-family:Helvetica;-inkscape-font-specification:Helvetica-Bold;writing-mode:lr-tb;fill:#000000;fill-opacity:1;fill-rule:nonzero;stroke:none"
           transform="matrix(1,0,0,-1,27.35,121.735)"><tspan
             id="tspan44"
             y="0"
             x="0 6.9499998">60</tspan></text>
</g><path
         id="path46"
         style="fill:none;stroke:#000000;stroke-width:2.5;stroke-linecap:butt;stroke-linejoin:miter;stroke-miterlimit:3.79999995;stroke-dasharray:none;stroke-opacity:1"
         d="m 487.5,1545 31.5,0 m 2855.5,0 -31.5,0" /><g
         transform="scale(10,10)"
         id="g48"><text
           id="text50"
           style="font-variant:normal;font-weight:bold;font-size:12.5px;font-family:Helvetica;-inkscape-font-specification:Helvetica-Bold;writing-mode:lr-tb;fill:#000000;fill-opacity:1;fill-rule:nonzero;stroke:none"
           transform="matrix(1,0,0,-1,27.35,150.335)"><tspan
             id="tspan52"
             y="0"
             x="0 6.9499998">80</tspan></text>
</g><path
         id="path54"
         style="fill:none;stroke:#000000;stroke-width:2.5;stroke-linecap:butt;stroke-linejoin:miter;stroke-miterlimit:3.79999995;stroke-dasharray:none;stroke-opacity:1"
         d="m 487.5,1831.5 31.5,0 m 2855.5,0 -31.5,0" /><g
         transform="scale(10,10)"
         id="g56"><text
           id="text58"
           style="font-variant:normal;font-weight:bold;font-size:12.5px;font-family:Helvetica;-inkscape-font-specification:Helvetica-Bold;writing-mode:lr-tb;fill:#000000;fill-opacity:1;fill-rule:nonzero;stroke:none"
           transform="matrix(1,0,0,-1,20.4,178.985)"><tspan
             id="tspan60"
             y="0"
             x="0 6.9499998 13.9">100</tspan></text>
</g><path
         id="path62"
         style="fill:none;stroke:#000000;stroke-width:2.5;stroke-linecap:butt;stroke-linejoin:miter;stroke-miterlimit:3.79999995;stroke-dasharray:none;stroke-opacity:1"
         d="m 487.5,2117.5 31.5,0 m 2855.5,0 -31.5,0" /><g
         transform="scale(10,10)"
         id="g64"><text
           id="text66"
           style="font-variant:normal;font-weight:bold;font-size:12.5px;font-family:Helvetica;-inkscape-font-specification:Helvetica-Bold;writing-mode:lr-tb;fill:#000000;fill-opacity:1;fill-rule:nonzero;stroke:none"
           transform="matrix(1,0,0,-1,20.4,207.585)"><tspan
             id="tspan68"
             y="0"
             x="0 6.9499998 13.9">120</tspan></text>
</g><path
         id="path70"
         style="fill:none;stroke:#000000;stroke-width:2.5;stroke-linecap:butt;stroke-linejoin:miter;stroke-miterlimit:3.79999995;stroke-dasharray:none;stroke-opacity:1"
         d="m 1065,400 0,31.5 m 0,1686 0,-31.5" /><g
         transform="scale(10,10)"
         id="g72"><text
           id="text74"
           style="font-variant:normal;font-weight:bold;font-size:12.5px;font-family:Helvetica;-inkscape-font-specification:Helvetica-Bold;writing-mode:lr-tb;fill:#000000;fill-opacity:1;fill-rule:nonzero;stroke:none"
           transform="matrix(1,0,0,-1,103.025,23.3352)"><tspan
             id="tspan76"
             y="0"
             x="0">1</tspan></text>
</g><path
         id="path78"
         style="fill:none;stroke:#000000;stroke-width:2.5;stroke-linecap:butt;stroke-linejoin:miter;stroke-miterlimit:3.79999995;stroke-dasharray:none;stroke-opacity:1"
         d="m 1642.5,400 0,31.5 m 0,1686 0,-31.5" /><g
         transform="scale(10,10)"
         id="g80"><text
           id="text82"
           style="font-variant:normal;font-weight:bold;font-size:12.5px;font-family:Helvetica;-inkscape-font-specification:Helvetica-Bold;writing-mode:lr-tb;fill:#000000;fill-opacity:1;fill-rule:nonzero;stroke:none"
           transform="matrix(1,0,0,-1,160.775,23.3352)"><tspan
             id="tspan84"
             y="0"
             x="0">5</tspan></text>
</g><path
         id="path86"
         style="fill:none;stroke:#000000;stroke-width:2.5;stroke-linecap:butt;stroke-linejoin:miter;stroke-miterlimit:3.79999995;stroke-dasharray:none;stroke-opacity:1"
         d="m 2219.5,400 0,31.5 m 0,1686 0,-31.5" /><g
         transform="scale(10,10)"
         id="g88"><text
           id="text90"
           style="font-variant:normal;font-weight:bold;font-size:12.5px;font-family:Helvetica;-inkscape-font-specification:Helvetica-Bold;writing-mode:lr-tb;fill:#000000;fill-opacity:1;fill-rule:nonzero;stroke:none"
           transform="matrix(1,0,0,-1,215,23.3352)"><tspan
             id="tspan92"
             y="0"
             x="0 6.9499998">10</tspan></text>
</g><path
         id="path94"
         style="fill:none;stroke:#000000;stroke-width:2.5;stroke-linecap:butt;stroke-linejoin:miter;stroke-miterlimit:3.79999995;stroke-dasharray:none;stroke-opacity:1"
         d="m 2797,400 0,31.5 m 0,1686 0,-31.5" /><g
         transform="scale(10,10)"
         id="g96"><text
           id="text98"
           style="font-variant:normal;font-weight:bold;font-size:12.5px;font-family:Helvetica;-inkscape-font-specification:Helvetica-Bold;writing-mode:lr-tb;fill:#000000;fill-opacity:1;fill-rule:nonzero;stroke:none"
           transform="matrix(1,0,0,-1,272.75,23.3352)"><tspan
             id="tspan100"
             y="0"
             x="0 6.9499998">20</tspan></text>
</g><path
         id="path102"
         style="fill:none;stroke:#000000;stroke-width:5;stroke-linecap:butt;stroke-linejoin:miter;stroke-miterlimit:3.79999995;stroke-dasharray:none;stroke-opacity:1"
         d="m 487.5,400 2887,0 0,1717.5 -2887,0 0,-1717.5 z" /><g
         transform="scale(10,10)"
         id="g104"><text
           id="text106"
           style="font-variant:normal;font-weight:bold;font-size:12.5px;font-family:Helvetica;-inkscape-font-specification:Helvetica-Bold;writing-mode:lr-tb;fill:#000000;fill-opacity:1;fill-rule:nonzero;stroke:none"
           transform="matrix(0,1,1,0,16.6648,101.888)"><tspan
             id="tspan108"
             y="0"
             x="0 7.6374998 11.1125 22.225 29.174999 32.650002 36.8125 43.762501">Time (s)</tspan></text>
<text
           id="text110"
           style="font-variant:normal;font-weight:bold;font-size:12.5px;font-family:Helvetica;-inkscape-font-specification:Helvetica-Bold;writing-mode:lr-tb;fill:#000000;fill-opacity:1;fill-rule:nonzero;stroke:none"
           transform="matrix(1,0,0,-1,117.388,4.58516)"><tspan
             id="tspan112"
             y="0"
             x="0 9.0249996 16.6625 27.775 35.412498 42.362499 47.224998 50.700001 58.337502 62.5 65.974998 73.612503 80.5625 85.425003 92.375 95.849998 99.324997 106.275 109.75 113.225 117.3875 125.025 129.8875 136.83749 143.78751">Number of parallel thread</tspan><tspan
             id="tspan114"
             y="-193.60001"
             x="-33.637501 -26 -16.975">TCP</tspan></text>
</g><path
         id="path116"
         style="fill:#ffd600;fill-opacity:1;fill-rule:nonzero;stroke:none"
         d="m 1162.5,1992.5 331.5,0 0,62.5 -331.5,0 0,-62.5 z" /><path
         id="path118"
         style="fill:none;stroke:#000000;stroke-width:2.5;stroke-linecap:butt;stroke-linejoin:miter;stroke-miterlimit:3.79999995;stroke-dasharray:none;stroke-opacity:1"
         d="m 1162.5,1992.5 331.5,0 0,62 -331.5,0 0,-62 z" /><path
         id="path120"
         style="fill:#ffd600;fill-opacity:1;fill-rule:nonzero;stroke:none"
         d="m 855.5,400 130.5,0 0,175.5 -130.5,0 0,-175.5 z" /><path
         id="path122"
         style="fill:none;stroke:#000000;stroke-width:2.5;stroke-linecap:butt;stroke-linejoin:miter;stroke-miterlimit:3.79999995;stroke-dasharray:none;stroke-opacity:1"
         d="m 855.5,400 130,0 0,175 -130,0 0,-175 z" /><path
         id="path124"
         style="fill:#ffd600;fill-opacity:1;fill-rule:nonzero;stroke:none"
         d="m 1433,400 130.5,0 0,675 -130.5,0 0,-675 z" /><path
         id="path126"
         style="fill:none;stroke:#000000;stroke-width:2.5;stroke-linecap:butt;stroke-linejoin:miter;stroke-miterlimit:3.79999995;stroke-dasharray:none;stroke-opacity:1"
         d="m 1433,400 130,0 0,674.5 -130,0 0,-674.5 z" /><path
         id="path128"
         style="fill:#ffd600;fill-opacity:1;fill-rule:nonzero;stroke:none"
         d="m 2010.5,400 130.5,0 0,990.5 -130.5,0 0,-990.5 z" /><path
         id="path130"
         style="fill:none;stroke:#000000;stroke-width:2.5;stroke-linecap:butt;stroke-linejoin:miter;stroke-miterlimit:3.79999995;stroke-dasharray:none;stroke-opacity:1"
         d="m 2010.5,400 130,0 0,990 -130,0 0,-990 z" /><path
         id="path132"
         style="fill:#ffd600;fill-opacity:1;fill-rule:nonzero;stroke:none"
         d="m 2588,400 130,0 0,1677 -130,0 0,-1677 z" /><path
         id="path134"
         style="fill:none;stroke:#000000;stroke-width:2.5;stroke-linecap:butt;stroke-linejoin:miter;stroke-miterlimit:3.79999995;stroke-dasharray:none;stroke-opacity:1"
         d="m 2588,400 129.5,0 0,1676.5 -129.5,0 0,-1676.5 z" /><path
         id="path136"
         style="fill:none;stroke:#000000;stroke-width:12.5;stroke-linecap:butt;stroke-linejoin:miter;stroke-miterlimit:3.79999995;stroke-dasharray:none;stroke-opacity:1"
         d="m 920.5,570.5 0,10 m -15.5,-10 31,0 m -31,10 31,0 m 562,491.5 0,4 m -15.5,-4 31,0 m -31,4 31,0 m 562,308.5 0,10.5 m -15.5,-10.5 31,0 m -31,10.5 31,0 m 562,654 0,59.5 m -15.5,-59.5 31,0 m -31,59.5 31,0" /><g
         transform="scale(10,10)"
         id="g138"><text
           id="text140"
           style="font-variant:normal;font-weight:bold;font-size:12.5px;font-family:Helvetica;-inkscape-font-specification:Helvetica-Bold;writing-mode:lr-tb;fill:#000000;fill-opacity:1;fill-rule:nonzero;stroke:none"
           transform="matrix(1,0,0,-1,65,185.685)"><tspan
             id="tspan142"
             y="0"
             x="0 10.4125 18.75 26.387501 35.412498">MPTCP</tspan></text>
</g><path
         id="path144"
         style="fill:#ff0000;fill-opacity:1;fill-rule:nonzero;stroke:none"
         d="m 1162.5,1867.5 331.5,0 0,62.5 -331.5,0 0,-62.5 z" /><path
         id="path146"
         style="fill:none;stroke:#000000;stroke-width:2.5;stroke-linecap:butt;stroke-linejoin:miter;stroke-miterlimit:3.79999995;stroke-dasharray:none;stroke-opacity:1"
         d="m 1162.5,1867.5 331.5,0 0,62 -331.5,0 0,-62 z" /><path
         id="path148"
         style="fill:#ff0000;fill-opacity:1;fill-rule:nonzero;stroke:none"
         d="m 1000,400 130.5,0 0,189 -130.5,0 0,-189 z" /><path
         id="path150"
         style="fill:none;stroke:#000000;stroke-width:2.5;stroke-linecap:butt;stroke-linejoin:miter;stroke-miterlimit:3.79999995;stroke-dasharray:none;stroke-opacity:1"
         d="m 1000,400 130,0 0,188.5 -130,0 0,-188.5 z" /><path
         id="path152"
         style="fill:#ff0000;fill-opacity:1;fill-rule:nonzero;stroke:none"
         d="m 1577.5,400 130.5,0 0,380 -130.5,0 0,-380 z" /><path
         id="path154"
         style="fill:none;stroke:#000000;stroke-width:2.5;stroke-linecap:butt;stroke-linejoin:miter;stroke-miterlimit:3.79999995;stroke-dasharray:none;stroke-opacity:1"
         d="m 1577.5,400 130,0 0,379.5 -130,0 0,-379.5 z" /><path
         id="path156"
         style="fill:#ff0000;fill-opacity:1;fill-rule:nonzero;stroke:none"
         d="m 2154.5,400 130.5,0 0,536 -130.5,0 0,-536 z" /><path
         id="path158"
         style="fill:none;stroke:#000000;stroke-width:2.5;stroke-linecap:butt;stroke-linejoin:miter;stroke-miterlimit:3.79999995;stroke-dasharray:none;stroke-opacity:1"
         d="m 2154.5,400 130,0 0,535.5 -130,0 0,-535.5 z" /><path
         id="path160"
         style="fill:#ff0000;fill-opacity:1;fill-rule:nonzero;stroke:none"
         d="m 2732,400 130.5,0 0,880.5 -130.5,0 0,-880.5 z" /><path
         id="path162"
         style="fill:none;stroke:#000000;stroke-width:2.5;stroke-linecap:butt;stroke-linejoin:miter;stroke-miterlimit:3.79999995;stroke-dasharray:none;stroke-opacity:1"
         d="m 2732,400 130,0 0,880 -130,0 0,-880 z" /><path
         id="path164"
         style="fill:none;stroke:#000000;stroke-width:12.5;stroke-linecap:butt;stroke-linejoin:miter;stroke-miterlimit:3.79999995;stroke-dasharray:none;stroke-opacity:1"
         d="m 1065,583 0,9 m -15.5,-9 31,0 m -31,9 31,0 m 562,186 0,3.5 m -15.5,-3.5 31,0 m -31,3.5 31,0 m 561.5,153 0,2 m -15.5,-2 31,0 m -31,2 31,0 m 562,337.5 0,13.5 m -15.5,-13.5 31,0 m -31,13.5 31,0" /><g
         transform="scale(10,10)"
         id="g166"><text
           id="text168"
           style="font-variant:normal;font-weight:bold;font-size:12.5px;font-family:Helvetica;-inkscape-font-specification:Helvetica-Bold;writing-mode:lr-tb;fill:#000000;fill-opacity:1;fill-rule:nonzero;stroke:none"
           transform="matrix(1,0,0,-1,60.8125,173.185)"><tspan
             id="tspan170"
             y="0"
             x="0 8.3374996 11.8125 18.762501 25.7125 33.349998 40.987499">Viscous</tspan></text>
</g><path
         id="path172"
         style="fill:#0000ff;fill-opacity:1;fill-rule:nonzero;stroke:none"
         d="m 1162.5,1742.5 331.5,0 0,62.5 -331.5,0 0,-62.5 z" /><path
         id="path174"
         style="fill:none;stroke:#000000;stroke-width:2.5;stroke-linecap:butt;stroke-linejoin:miter;stroke-miterlimit:3.79999995;stroke-dasharray:none;stroke-opacity:1"
         d="m 1162.5,1742.5 331.5,0 0,62 -331.5,0 0,-62 z" /><path
         id="path176"
         style="fill:#0000ff;fill-opacity:1;fill-rule:nonzero;stroke:none"
         d="m 1144.5,400 130,0 0,59.5 -130,0 0,-59.5 z" /><path
         id="path178"
         style="fill:none;stroke:#000000;stroke-width:2.5;stroke-linecap:butt;stroke-linejoin:miter;stroke-miterlimit:3.79999995;stroke-dasharray:none;stroke-opacity:1"
         d="m 1144.5,400 129.5,0 0,59 -129.5,0 0,-59 z" /><path
         id="path180"
         style="fill:#0000ff;fill-opacity:1;fill-rule:nonzero;stroke:none"
         d="m 1721.5,400 130.5,0 0,231.5 -130.5,0 0,-231.5 z" /><path
         id="path182"
         style="fill:none;stroke:#000000;stroke-width:2.5;stroke-linecap:butt;stroke-linejoin:miter;stroke-miterlimit:3.79999995;stroke-dasharray:none;stroke-opacity:1"
         d="m 1721.5,400 130,0 0,231 -130,0 0,-231 z" /><path
         id="path184"
         style="fill:#0000ff;fill-opacity:1;fill-rule:nonzero;stroke:none"
         d="m 2299,400 130.5,0 0,478.5 -130.5,0 0,-478.5 z" /><path
         id="path186"
         style="fill:none;stroke:#000000;stroke-width:2.5;stroke-linecap:butt;stroke-linejoin:miter;stroke-miterlimit:3.79999995;stroke-dasharray:none;stroke-opacity:1"
         d="m 2299,400 130,0 0,478 -130,0 0,-478 z" /><path
         id="path188"
         style="fill:#0000ff;fill-opacity:1;fill-rule:nonzero;stroke:none"
         d="m 2876.5,400 130.5,0 0,946.5 -130.5,0 0,-946.5 z" /><path
         id="path190"
         style="fill:none;stroke:#000000;stroke-width:2.5;stroke-linecap:butt;stroke-linejoin:miter;stroke-miterlimit:3.79999995;stroke-dasharray:none;stroke-opacity:1"
         d="m 2876.5,400 130,0 0,946 -130,0 0,-946 z" /><path
         id="path192"
         style="fill:none;stroke:#000000;stroke-width:12.5;stroke-linecap:butt;stroke-linejoin:miter;stroke-miterlimit:3.79999995;stroke-dasharray:none;stroke-opacity:1"
         d="m 1209.5,457.5 0,4 m -15.5,-4 31,0 m -31,4 31,0 m 561.5,165.5 0,8.5 m -15.5,-8.5 31,0 m -31,8.5 31,0 m 562,226.5 0,29.5 m -15.5,-29.5 31,0 m -31,29.5 31,0 m 562,398.5 0,113 m -15.5,-113 31,0 m -31,113 31,0" /><path
         id="path194"
         style="fill:none;stroke:#000000;stroke-width:5;stroke-linecap:butt;stroke-linejoin:miter;stroke-miterlimit:3.79999995;stroke-dasharray:none;stroke-opacity:1"
         d="m 487.5,400 2887,0 0,1717.5 -2887,0 0,-1717.5 z" /></g></g></svg>