<?xml version="1.0" encoding="UTF-8" standalone="no"?>
<svg
   xmlns:dc="http://purl.org/dc/elements/1.1/"
   xmlns:cc="http://creativecommons.org/ns#"
   xmlns:rdf="http://www.w3.org/1999/02/22-rdf-syntax-ns#"
   xmlns:svg="http://www.w3.org/2000/svg"
   xmlns="http://www.w3.org/2000/svg"
   viewBox="0 0 450 282.5"
   height="282.5"
   width="450"
   xml:space="preserve"
   version="1.1"
   id="svg2"><metadata
     id="metadata8"><rdf:RDF><cc:Work
         rdf:about=""><dc:format>image/svg+xml</dc:format><dc:type
           rdf:resource="http://purl.org/dc/dcmitype/StillImage" /></cc:Work></rdf:RDF></metadata><defs
     id="defs6" /><g
     transform="matrix(1.25,0,0,-1.25,0,282.5)"
     id="g10"><g
       transform="scale(0.1,0.1)"
       id="g12"><path
         id="path14"
         style="fill:none;stroke:#000000;stroke-width:2.5;stroke-linecap:butt;stroke-linejoin:miter;stroke-miterlimit:3.79999995;stroke-dasharray:none;stroke-opacity:1"
         d="m 487.5,400 31.5,0 m 2855.5,0 -31.5,0" /><g
         transform="scale(10,10)"
         id="g16"><text
           id="text18"
           style="font-variant:normal;font-weight:bold;font-size:12.5px;font-family:Helvetica;-inkscape-font-specification:Helvetica-Bold;writing-mode:lr-tb;fill:#000000;fill-opacity:1;fill-rule:nonzero;stroke:none"
           transform="matrix(1,0,0,-1,34.3,35.8352)"><tspan
             id="tspan20"
             y="0"
             x="0">0</tspan></text>
</g><path
         id="path22"
         style="fill:none;stroke:#000000;stroke-width:2.5;stroke-linecap:butt;stroke-linejoin:miter;stroke-miterlimit:3.79999995;stroke-dasharray:none;stroke-opacity:1"
         d="m 487.5,686.5 31.5,0 m 2855.5,0 -31.5,0" /><g
         transform="scale(10,10)"
         id="g24"><text
           id="text26"
           style="font-variant:normal;font-weight:bold;font-size:12.5px;font-family:Helvetica;-inkscape-font-specification:Helvetica-Bold;writing-mode:lr-tb;fill:#000000;fill-opacity:1;fill-rule:nonzero;stroke:none"
           transform="matrix(1,0,0,-1,27.35,64.4852)"><tspan
             id="tspan28"
             y="0"
             x="0 6.9499998">20</tspan></text>
</g><path
         id="path30"
         style="fill:none;stroke:#000000;stroke-width:2.5;stroke-linecap:butt;stroke-linejoin:miter;stroke-miterlimit:3.79999995;stroke-dasharray:none;stroke-opacity:1"
         d="m 487.5,972.5 31.5,0 m 2855.5,0 -31.5,0" /><g
         transform="scale(10,10)"
         id="g32"><text
           id="text34"
           style="font-variant:normal;font-weight:bold;font-size:12.5px;font-family:Helvetica;-inkscape-font-specification:Helvetica-Bold;writing-mode:lr-tb;fill:#000000;fill-opacity:1;fill-rule:nonzero;stroke:none"
           transform="matrix(1,0,0,-1,27.35,93.0852)"><tspan
             id="tspan36"
             y="0"
             x="0 6.9499998">40</tspan></text>
</g><path
         id="path38"
         style="fill:none;stroke:#000000;stroke-width:2.5;stroke-linecap:butt;stroke-linejoin:miter;stroke-miterlimit:3.79999995;stroke-dasharray:none;stroke-opacity:1"
         d="m 487.5,1259 31.5,0 m 2855.5,0 -31.5,0" /><g
         transform="scale(10,10)"
         id="g40"><text
           id="text42"
           style="font-variant:normal;font-weight:bold;font-size:12.5px;font-family:Helvetica;-inkscape-font-specification:Helvetica-Bold;writing-mode:lr-tb;fill:#000000;fill-opacity:1;fill-rule:nonzero;stroke:none"
           transform="matrix(1,0,0,-1,27.35,121.735)"><tspan
             id="tspan44"
             y="0"
             x="0 6.9499998">60</tspan></text>
</g><path
         id="path46"
         style="fill:none;stroke:#000000;stroke-width:2.5;stroke-linecap:butt;stroke-linejoin:miter;stroke-miterlimit:3.79999995;stroke-dasharray:none;stroke-opacity:1"
         d="m 487.5,1545 31.5,0 m 2855.5,0 -31.5,0" /><g
         transform="scale(10,10)"
         id="g48"><text
           id="text50"
           style="font-variant:normal;font-weight:bold;font-size:12.5px;font-family:Helvetica;-inkscape-font-specification:Helvetica-Bold;writing-mode:lr-tb;fill:#000000;fill-opacity:1;fill-rule:nonzero;stroke:none"
           transform="matrix(1,0,0,-1,27.35,150.335)"><tspan
             id="tspan52"
             y="0"
             x="0 6.9499998">80</tspan></text>
</g><path
         id="path54"
         style="fill:none;stroke:#000000;stroke-width:2.5;stroke-linecap:butt;stroke-linejoin:miter;stroke-miterlimit:3.79999995;stroke-dasharray:none;stroke-opacity:1"
         d="m 487.5,1831.5 31.5,0 m 2855.5,0 -31.5,0" /><g
         transform="scale(10,10)"
         id="g56"><text
           id="text58"
           style="font-variant:normal;font-weight:bold;font-size:12.5px;font-family:Helvetica;-inkscape-font-specification:Helvetica-Bold;writing-mode:lr-tb;fill:#000000;fill-opacity:1;fill-rule:nonzero;stroke:none"
           transform="matrix(1,0,0,-1,20.4,178.985)"><tspan
             id="tspan60"
             y="0"
             x="0 6.9499998 13.9">100</tspan></text>
</g><path
         id="path62"
         style="fill:none;stroke:#000000;stroke-width:2.5;stroke-linecap:butt;stroke-linejoin:miter;stroke-miterlimit:3.79999995;stroke-dasharray:none;stroke-opacity:1"
         d="m 487.5,2117.5 31.5,0 m 2855.5,0 -31.5,0" /><g
         transform="scale(10,10)"
         id="g64"><text
           id="text66"
           style="font-variant:normal;font-weight:bold;font-size:12.5px;font-family:Helvetica;-inkscape-font-specification:Helvetica-Bold;writing-mode:lr-tb;fill:#000000;fill-opacity:1;fill-rule:nonzero;stroke:none"
           transform="matrix(1,0,0,-1,20.4,207.585)"><tspan
             id="tspan68"
             y="0"
             x="0 6.9499998 13.9">120</tspan></text>
</g><path
         id="path70"
         style="fill:none;stroke:#000000;stroke-width:2.5;stroke-linecap:butt;stroke-linejoin:miter;stroke-miterlimit:3.79999995;stroke-dasharray:none;stroke-opacity:1"
         d="m 1065,400 0,31.5 m 0,1686 0,-31.5" /><g
         transform="scale(10,10)"
         id="g72"><text
           id="text74"
           style="font-variant:normal;font-weight:bold;font-size:12.5px;font-family:Helvetica;-inkscape-font-specification:Helvetica-Bold;writing-mode:lr-tb;fill:#000000;fill-opacity:1;fill-rule:nonzero;stroke:none"
           transform="matrix(1,0,0,-1,103.025,23.3352)"><tspan
             id="tspan76"
             y="0"
             x="0">1</tspan></text>
</g><path
         id="path78"
         style="fill:none;stroke:#000000;stroke-width:2.5;stroke-linecap:butt;stroke-linejoin:miter;stroke-miterlimit:3.79999995;stroke-dasharray:none;stroke-opacity:1"
         d="m 1642.5,400 0,31.5 m 0,1686 0,-31.5" /><g
         transform="scale(10,10)"
         id="g80"><text
           id="text82"
           style="font-variant:normal;font-weight:bold;font-size:12.5px;font-family:Helvetica;-inkscape-font-specification:Helvetica-Bold;writing-mode:lr-tb;fill:#000000;fill-opacity:1;fill-rule:nonzero;stroke:none"
           transform="matrix(1,0,0,-1,160.775,23.3352)"><tspan
             id="tspan84"
             y="0"
             x="0">5</tspan></text>
</g><path
         id="path86"
         style="fill:none;stroke:#000000;stroke-width:2.5;stroke-linecap:butt;stroke-linejoin:miter;stroke-miterlimit:3.79999995;stroke-dasharray:none;stroke-opacity:1"
         d="m 2219.5,400 0,31.5 m 0,1686 0,-31.5" /><g
         transform="scale(10,10)"
         id="g88"><text
           id="text90"
           style="font-variant:normal;font-weight:bold;font-size:12.5px;font-family:Helvetica;-inkscape-font-specification:Helvetica-Bold;writing-mode:lr-tb;fill:#000000;fill-opacity:1;fill-rule:nonzero;stroke:none"
           transform="matrix(1,0,0,-1,215,23.3352)"><tspan
             id="tspan92"
             y="0"
             x="0 6.9499998">10</tspan></text>
</g><path
         id="path94"
         style="fill:none;stroke:#000000;stroke-width:2.5;stroke-linecap:butt;stroke-linejoin:miter;stroke-miterlimit:3.79999995;stroke-dasharray:none;stroke-opacity:1"
         d="m 2797,400 0,31.5 m 0,1686 0,-31.5" /><g
         transform="scale(10,10)"
         id="g96"><text
           id="text98"
           style="font-variant:normal;font-weight:bold;font-size:12.5px;font-family:Helvetica;-inkscape-font-specification:Helvetica-Bold;writing-mode:lr-tb;fill:#000000;fill-opacity:1;fill-rule:nonzero;stroke:none"
           transform="matrix(1,0,0,-1,272.75,23.3352)"><tspan
             id="tspan100"
             y="0"
             x="0 6.9499998">20</tspan></text>
</g><path
         id="path102"
         style="fill:none;stroke:#000000;stroke-width:5;stroke-linecap:butt;stroke-linejoin:miter;stroke-miterlimit:3.79999995;stroke-dasharray:none;stroke-opacity:1"
         d="m 487.5,400 2887,0 0,1717.5 -2887,0 0,-1717.5 z" /><g
         transform="scale(10,10)"
         id="g104"><text
           id="text106"
           style="font-variant:normal;font-weight:bold;font-size:12.5px;font-family:Helvetica;-inkscape-font-specification:Helvetica-Bold;writing-mode:lr-tb;fill:#000000;fill-opacity:1;fill-rule:nonzero;stroke:none"
           transform="matrix(0,1,1,0,16.6648,77.5938)"><tspan
             id="tspan108"
             y="0"
             x="0 9.7250004 17.362499 25 32.637501 40.275002 47.912498 52.075001 55.549999 59.712502 70.125 77.762497 85.400002 92.349998">Goodput (Mbps)</tspan></text>
<text
           id="text110"
           style="font-variant:normal;font-weight:bold;font-size:12.5px;font-family:Helvetica;-inkscape-font-specification:Helvetica-Bold;writing-mode:lr-tb;fill:#000000;fill-opacity:1;fill-rule:nonzero;stroke:none"
           transform="matrix(1,0,0,-1,117.388,4.58516)"><tspan
             id="tspan112"
             y="0"
             x="0 9.0249996 16.6625 27.775 35.412498 42.362499 47.224998 50.700001 58.337502 62.5 65.974998 73.612503 80.5625 85.425003 92.375 95.849998 99.324997 106.275 109.75 113.225 117.3875 125.025 129.8875 136.83749 143.78751">Number of parallel thread</tspan><tspan
             id="tspan114"
             y="-193.60001"
             x="-39.887501 -30.1625 -21.137501 -17.6625">QUIC</tspan></text>
</g><path
         id="path116"
         style="fill:#000000;fill-opacity:1;fill-rule:nonzero;stroke:none"
         d="m 1162.5,1992.5 331.5,0 0,62.5 -331.5,0 0,-62.5 z" /><path
         id="path118"
         style="fill:none;stroke:#000000;stroke-width:2.5;stroke-linecap:butt;stroke-linejoin:miter;stroke-miterlimit:3.79999995;stroke-dasharray:none;stroke-opacity:1"
         d="m 1162.5,1992.5 331.5,0 0,62 -331.5,0 0,-62 z" /><path
         id="path120"
         style="fill:#000000;fill-opacity:1;fill-rule:nonzero;stroke:none"
         d="m 839.5,400 104.5,0 0,42.5 -104.5,0 0,-42.5 z" /><path
         id="path122"
         style="fill:none;stroke:#000000;stroke-width:2.5;stroke-linecap:butt;stroke-linejoin:miter;stroke-miterlimit:3.79999995;stroke-dasharray:none;stroke-opacity:1"
         d="m 839.5,400 104,0 0,42 -104,0 0,-42 z" /><path
         id="path124"
         style="fill:#000000;fill-opacity:1;fill-rule:nonzero;stroke:none"
         d="m 1417,400 104.5,0 0,138 -104.5,0 0,-138 z" /><path
         id="path126"
         style="fill:none;stroke:#000000;stroke-width:2.5;stroke-linecap:butt;stroke-linejoin:miter;stroke-miterlimit:3.79999995;stroke-dasharray:none;stroke-opacity:1"
         d="m 1417,400 104,0 0,137.5 -104,0 0,-137.5 z" /><path
         id="path128"
         style="fill:#000000;fill-opacity:1;fill-rule:nonzero;stroke:none"
         d="m 1994.5,400 104.5,0 0,209 -104.5,0 0,-209 z" /><path
         id="path130"
         style="fill:none;stroke:#000000;stroke-width:2.5;stroke-linecap:butt;stroke-linejoin:miter;stroke-miterlimit:3.79999995;stroke-dasharray:none;stroke-opacity:1"
         d="m 1994.5,400 104,0 0,208.5 -104,0 0,-208.5 z" /><path
         id="path132"
         style="fill:#000000;fill-opacity:1;fill-rule:nonzero;stroke:none"
         d="m 2572,400 104.5,0 0,252.5 -104.5,0 0,-252.5 z" /><path
         id="path134"
         style="fill:none;stroke:#000000;stroke-width:2.5;stroke-linecap:butt;stroke-linejoin:miter;stroke-miterlimit:3.79999995;stroke-dasharray:none;stroke-opacity:1"
         d="m 2572,400 104,0 0,252 -104,0 0,-252 z" /><path
         id="path136"
         style="fill:none;stroke:#000000;stroke-width:12.5;stroke-linecap:butt;stroke-linejoin:miter;stroke-miterlimit:3.79999995;stroke-dasharray:none;stroke-opacity:1"
         d="m 876,442 31,0 m -31,0 31,0 m 546.5,95.5 31,0 m -31,0 31,0 m 546.5,71 31,0 m -31,0 31,0 m 546.5,43.5 31,0 m -31,0 31,0" /><g
         transform="scale(10,10)"
         id="g138"><text
           id="text140"
           style="font-variant:normal;font-weight:bold;font-size:12.5px;font-family:Helvetica;-inkscape-font-specification:Helvetica-Bold;writing-mode:lr-tb;fill:#000000;fill-opacity:1;fill-rule:nonzero;stroke:none"
           transform="matrix(1,0,0,-1,83.75,185.685)"><tspan
             id="tspan142"
             y="0"
             x="0 7.6374998 16.6625">TCP</tspan></text>
</g><path
         id="path144"
         style="fill:#ffd600;fill-opacity:1;fill-rule:nonzero;stroke:none"
         d="m 1162.5,1867.5 331.5,0 0,62.5 -331.5,0 0,-62.5 z" /><path
         id="path146"
         style="fill:none;stroke:#000000;stroke-width:2.5;stroke-linecap:butt;stroke-linejoin:miter;stroke-miterlimit:3.79999995;stroke-dasharray:none;stroke-opacity:1"
         d="m 1162.5,1867.5 331.5,0 0,62 -331.5,0 0,-62 z" /><path
         id="path148"
         style="fill:#ffd600;fill-opacity:1;fill-rule:nonzero;stroke:none"
         d="m 955,400 104.5,0 0,45.5 -104.5,0 0,-45.5 z" /><path
         id="path150"
         style="fill:none;stroke:#000000;stroke-width:2.5;stroke-linecap:butt;stroke-linejoin:miter;stroke-miterlimit:3.79999995;stroke-dasharray:none;stroke-opacity:1"
         d="m 955,400 104,0 0,45 -104,0 0,-45 z" /><path
         id="path152"
         style="fill:#ffd600;fill-opacity:1;fill-rule:nonzero;stroke:none"
         d="m 1532.5,400 104.5,0 0,137 -104.5,0 0,-137 z" /><path
         id="path154"
         style="fill:none;stroke:#000000;stroke-width:2.5;stroke-linecap:butt;stroke-linejoin:miter;stroke-miterlimit:3.79999995;stroke-dasharray:none;stroke-opacity:1"
         d="m 1532.5,400 104,0 0,136.5 -104,0 0,-136.5 z" /><path
         id="path156"
         style="fill:#ffd600;fill-opacity:1;fill-rule:nonzero;stroke:none"
         d="m 2110,400 104.5,0 0,264.5 -104.5,0 0,-264.5 z" /><path
         id="path158"
         style="fill:none;stroke:#000000;stroke-width:2.5;stroke-linecap:butt;stroke-linejoin:miter;stroke-miterlimit:3.79999995;stroke-dasharray:none;stroke-opacity:1"
         d="m 2110,400 104,0 0,264 -104,0 0,-264 z" /><path
         id="path160"
         style="fill:#ffd600;fill-opacity:1;fill-rule:nonzero;stroke:none"
         d="m 2687.5,400 104.5,0 0,663.5 -104.5,0 0,-663.5 z" /><path
         id="path162"
         style="fill:none;stroke:#000000;stroke-width:2.5;stroke-linecap:butt;stroke-linejoin:miter;stroke-miterlimit:3.79999995;stroke-dasharray:none;stroke-opacity:1"
         d="m 2687.5,400 104,0 0,663 -104,0 0,-663 z" /><path
         id="path164"
         style="fill:none;stroke:#000000;stroke-width:12.5;stroke-linecap:butt;stroke-linejoin:miter;stroke-miterlimit:3.79999995;stroke-dasharray:none;stroke-opacity:1"
         d="m 991.5,445 31,0 m -31,0 31,0 m 562,89.5 0,3 m -15.5,-3 31,0 m -31,3 31,0 m 562,72.5 0,93 m -15.5,-93 31,0 m -31,93 31,0 m 562,324 0,81 m -15.5,-81 31,0 m -31,81 31,0" /><g
         transform="scale(10,10)"
         id="g166"><text
           id="text168"
           style="font-variant:normal;font-weight:bold;font-size:12.5px;font-family:Helvetica;-inkscape-font-specification:Helvetica-Bold;writing-mode:lr-tb;fill:#000000;fill-opacity:1;fill-rule:nonzero;stroke:none"
           transform="matrix(1,0,0,-1,65,173.185)"><tspan
             id="tspan170"
             y="0"
             x="0 10.4125 18.75 26.387501 35.412498">MPTCP</tspan></text>
</g><path
         id="path172"
         style="fill:#ff0000;fill-opacity:1;fill-rule:nonzero;stroke:none"
         d="m 1162.5,1742.5 331.5,0 0,62.5 -331.5,0 0,-62.5 z" /><path
         id="path174"
         style="fill:none;stroke:#000000;stroke-width:2.5;stroke-linecap:butt;stroke-linejoin:miter;stroke-miterlimit:3.79999995;stroke-dasharray:none;stroke-opacity:1"
         d="m 1162.5,1742.5 331.5,0 0,62 -331.5,0 0,-62 z" /><path
         id="path176"
         style="fill:#ff0000;fill-opacity:1;fill-rule:nonzero;stroke:none"
         d="m 1070.5,400 104.5,0 0,46.5 -104.5,0 0,-46.5 z" /><path
         id="path178"
         style="fill:none;stroke:#000000;stroke-width:2.5;stroke-linecap:butt;stroke-linejoin:miter;stroke-miterlimit:3.79999995;stroke-dasharray:none;stroke-opacity:1"
         d="m 1070.5,400 104,0 0,46 -104,0 0,-46 z" /><path
         id="path180"
         style="fill:#ff0000;fill-opacity:1;fill-rule:nonzero;stroke:none"
         d="m 1648,400 104.5,0 0,198 -104.5,0 0,-198 z" /><path
         id="path182"
         style="fill:none;stroke:#000000;stroke-width:2.5;stroke-linecap:butt;stroke-linejoin:miter;stroke-miterlimit:3.79999995;stroke-dasharray:none;stroke-opacity:1"
         d="m 1648,400 104,0 0,197.5 -104,0 0,-197.5 z" /><path
         id="path184"
         style="fill:#ff0000;fill-opacity:1;fill-rule:nonzero;stroke:none"
         d="m 2225.5,400 104.5,0 0,403.5 -104.5,0 0,-403.5 z" /><path
         id="path186"
         style="fill:none;stroke:#000000;stroke-width:2.5;stroke-linecap:butt;stroke-linejoin:miter;stroke-miterlimit:3.79999995;stroke-dasharray:none;stroke-opacity:1"
         d="m 2225.5,400 104,0 0,403 -104,0 0,-403 z" /><path
         id="path188"
         style="fill:#ff0000;fill-opacity:1;fill-rule:nonzero;stroke:none"
         d="m 2803,400 104.5,0 0,799 -104.5,0 0,-799 z" /><path
         id="path190"
         style="fill:none;stroke:#000000;stroke-width:2.5;stroke-linecap:butt;stroke-linejoin:miter;stroke-miterlimit:3.79999995;stroke-dasharray:none;stroke-opacity:1"
         d="m 2803,400 104,0 0,798.5 -104,0 0,-798.5 z" /><path
         id="path192"
         style="fill:none;stroke:#000000;stroke-width:12.5;stroke-linecap:butt;stroke-linejoin:miter;stroke-miterlimit:3.79999995;stroke-dasharray:none;stroke-opacity:1"
         d="m 1122.5,445.5 0,0.5 m -15.5,-0.5 31,0 m -31,0.5 31,0 m 562,145.5 0,14.5 m -15.5,-14.5 31,0 m -31,14.5 31,0 m 562,194.5 0,4.5 m -15.5,-4.5 31,0 m -31,4.5 31,0 m 562,377.5 0,31.5 m -15.5,-31.5 31,0 m -31,31.5 31,0" /><g
         transform="scale(10,10)"
         id="g194"><text
           id="text196"
           style="font-variant:normal;font-weight:bold;font-size:12.5px;font-family:Helvetica;-inkscape-font-specification:Helvetica-Bold;writing-mode:lr-tb;fill:#000000;fill-opacity:1;fill-rule:nonzero;stroke:none"
           transform="matrix(1,0,0,-1,60.8125,160.685)"><tspan
             id="tspan198"
             y="0"
             x="0 8.3374996 11.8125 18.762501 25.7125 33.349998 40.987499">Viscous</tspan></text>
</g><path
         id="path200"
         style="fill:#0000ff;fill-opacity:1;fill-rule:nonzero;stroke:none"
         d="m 1162.5,1617.5 331.5,0 0,62.5 -331.5,0 0,-62.5 z" /><path
         id="path202"
         style="fill:none;stroke:#000000;stroke-width:2.5;stroke-linecap:butt;stroke-linejoin:miter;stroke-miterlimit:3.79999995;stroke-dasharray:none;stroke-opacity:1"
         d="m 1162.5,1617.5 331.5,0 0,62 -331.5,0 0,-62 z" /><path
         id="path204"
         style="fill:#0000ff;fill-opacity:1;fill-rule:nonzero;stroke:none"
         d="m 1186,400 104.5,0 0,940 -104.5,0 0,-940 z" /><path
         id="path206"
         style="fill:none;stroke:#000000;stroke-width:2.5;stroke-linecap:butt;stroke-linejoin:miter;stroke-miterlimit:3.79999995;stroke-dasharray:none;stroke-opacity:1"
         d="m 1186,400 104,0 0,939.5 -104,0 0,-939.5 z" /><path
         id="path208"
         style="fill:#0000ff;fill-opacity:1;fill-rule:nonzero;stroke:none"
         d="m 1763.5,400 104.5,0 0,1419.5 -104.5,0 0,-1419.5 z" /><path
         id="path210"
         style="fill:none;stroke:#000000;stroke-width:2.5;stroke-linecap:butt;stroke-linejoin:miter;stroke-miterlimit:3.79999995;stroke-dasharray:none;stroke-opacity:1"
         d="m 1763.5,400 104,0 0,1419 -104,0 0,-1419 z" /><path
         id="path212"
         style="fill:#0000ff;fill-opacity:1;fill-rule:nonzero;stroke:none"
         d="m 2341,400 104.5,0 0,1469 -104.5,0 0,-1469 z" /><path
         id="path214"
         style="fill:none;stroke:#000000;stroke-width:2.5;stroke-linecap:butt;stroke-linejoin:miter;stroke-miterlimit:3.79999995;stroke-dasharray:none;stroke-opacity:1"
         d="m 2341,400 104,0 0,1468.5 -104,0 0,-1468.5 z" /><path
         id="path216"
         style="fill:#0000ff;fill-opacity:1;fill-rule:nonzero;stroke:none"
         d="m 2918.5,400 104.5,0 0,1528 -104.5,0 0,-1528 z" /><path
         id="path218"
         style="fill:none;stroke:#000000;stroke-width:2.5;stroke-linecap:butt;stroke-linejoin:miter;stroke-miterlimit:3.79999995;stroke-dasharray:none;stroke-opacity:1"
         d="m 2918.5,400 104,0 0,1527.5 -104,0 0,-1527.5 z" /><path
         id="path220"
         style="fill:none;stroke:#000000;stroke-width:12.5;stroke-linecap:butt;stroke-linejoin:miter;stroke-miterlimit:3.79999995;stroke-dasharray:none;stroke-opacity:1"
         d="m 1238,1279 0,91.5 m -15.5,-91.5 31,0 m -31,91.5 31,0 m 562,157 0,464 m -15.5,-464 31,0 m -31,464 31,0 m 562,-319 0,409 m -15.5,-409 31,0 m -31,409 31,0 m 562,-190.5 0,78 m -15.5,-78 31,0 m -31,78 31,0" /><path
         id="path222"
         style="fill:none;stroke:#000000;stroke-width:5;stroke-linecap:butt;stroke-linejoin:miter;stroke-miterlimit:3.79999995;stroke-dasharray:none;stroke-opacity:1"
         d="m 487.5,400 2887,0 0,1717.5 -2887,0 0,-1717.5 z" /></g></g></svg>